<svg id="Ebene_1" data-name="Ebene 1" xmlns="http://www.w3.org/2000/svg" viewBox="0 0 398 100"><defs><style>.cls-1,.cls-5{fill:#f08705;}.cls-2{fill:#df6c0c;}.cls-2,.cls-4,.cls-5{fill-rule:evenodd;}.cls-3{fill:#fff;}.cls-4{fill:#333;}</style></defs><title>drawio-logo-RGB-horizontal-dark-small-398x100px</title><rect class="cls-1" width="100" height="100" rx="4" ry="4"/><path class="cls-2" d="M53.076,25.6,63.86,14.217,100,50.337V96a4,4,0,0,1-4,4H33.27L14.039,80.688Z"/><rect class="cls-3" x="59" y="32" width="6" height="30" transform="translate(-15.194 37.297) rotate(-30)"/><rect class="cls-3" x="23" y="44" width="30" height="6" transform="translate(-21.703 56.409) rotate(-60)"/><rect class="cls-3" x="35" y="13" width="30" height="25" rx="4" ry="4"/><rect class="cls-3" x="57" y="57" width="30" height="25" rx="4" ry="4"/><rect class="cls-3" x="13" y="57" width="30" height="25" rx="4" ry="4"/><path class="cls-4" d="M167,80.578a1.427,1.427,0,0,1-.206.787,1.517,1.517,0,0,1-.7.528,4.623,4.623,0,0,1-1.34.3q-.846.087-2.083.087a21.264,21.264,0,0,1-2.146-.087,4.8,4.8,0,0,1-1.342-.3,1.654,1.654,0,0,1-.742-.528,1.317,1.317,0,0,1-.227-.787V76.371a23.85,23.85,0,0,1-5.96,4.889A13.922,13.922,0,0,1,145.345,83a14.079,14.079,0,0,1-7.116-1.676,13.758,13.758,0,0,1-4.743-4.529,19.848,19.848,0,0,1-2.66-6.648A37.583,37.583,0,0,1,130,62.136a36.2,36.2,0,0,1,1.05-9.092,20.856,20.856,0,0,1,3.075-6.884,13.753,13.753,0,0,1,5.03-4.378,15.106,15.106,0,0,1,6.93-1.53,12.041,12.041,0,0,1,5.61,1.3,19.939,19.939,0,0,1,4.992,3.8V24.827a1.342,1.342,0,0,1,.227-.765,1.714,1.714,0,0,1,.826-.574,6.933,6.933,0,0,1,1.587-.362,25.183,25.183,0,0,1,5.032,0,6.572,6.572,0,0,1,1.567.362,1.867,1.867,0,0,1,.825.574,1.269,1.269,0,0,1,.247.765V80.578ZM156.69,55.253a23.117,23.117,0,0,0-4.27-4.419,7.023,7.023,0,0,0-4.268-1.53,5.867,5.867,0,0,0-3.487,1.039,7.57,7.57,0,0,0-2.351,2.783,15.137,15.137,0,0,0-1.32,3.89,22.077,22.077,0,0,0-.432,4.4,28.464,28.464,0,0,0,.37,4.631,14.676,14.676,0,0,0,1.218,4.014,7.54,7.54,0,0,0,2.247,2.826,5.7,5.7,0,0,0,3.548,1.064,6.819,6.819,0,0,0,2.083-.32,7.7,7.7,0,0,0,2.062-1.04,14.04,14.04,0,0,0,2.166-1.891q1.112-1.17,2.432-2.867V55.253Z"/><path class="cls-4" d="M204,46.8c0,1-.032,1.812-.091,2.446a7.317,7.317,0,0,1-.258,1.493,1.442,1.442,0,0,1-.459.748,1.191,1.191,0,0,1-.719.207,2.489,2.489,0,0,1-.786-.144c-.293-.1-.619-.2-.981-.313s-.764-.213-1.2-.309a6.643,6.643,0,0,0-1.441-.147,5.036,5.036,0,0,0-1.833.355,7.728,7.728,0,0,0-1.9,1.1,13.822,13.822,0,0,0-2.052,1.989,31.949,31.949,0,0,0-2.291,3.069V80.344a1.1,1.1,0,0,1-.26.725,1.934,1.934,0,0,1-.9.516,8.3,8.3,0,0,1-1.679.314c-.7.069-1.586.1-2.66.1s-1.963-.032-2.661-.1a8.263,8.263,0,0,1-1.682-.314,1.927,1.927,0,0,1-.892-.516,1.1,1.1,0,0,1-.263-.725V43.366a1.21,1.21,0,0,1,.221-.726,1.612,1.612,0,0,1,.784-.519,6.639,6.639,0,0,1,1.461-.309,20.2,20.2,0,0,1,2.248-.1,21.269,21.269,0,0,1,2.311.1,5.593,5.593,0,0,1,1.42.309,1.629,1.629,0,0,1,.718.519,1.235,1.235,0,0,1,.217.726v4.6a30.688,30.688,0,0,1,2.881-3.42,16.212,16.212,0,0,1,2.575-2.134,8.258,8.258,0,0,1,2.443-1.1A9.9,9.9,0,0,1,198.72,41c.379,0,.787.022,1.224.062a13.108,13.108,0,0,1,1.352.21,9.094,9.094,0,0,1,1.22.332,2.4,2.4,0,0,1,.764.391,1.291,1.291,0,0,1,.349.456,3.5,3.5,0,0,1,.2.686,9.485,9.485,0,0,1,.132,1.3c.025.583.042,1.368.042,2.362"/><path class="cls-4" d="M241.581,81.663a2.877,2.877,0,0,1-1.314.479,17.671,17.671,0,0,1-2.65.148,17.912,17.912,0,0,1-2.731-.148,2.365,2.365,0,0,1-1.21-.479,1.209,1.209,0,0,1-.355-.92V77.782a16.934,16.934,0,0,1-5.236,3.84A15.217,15.217,0,0,1,221.557,83a18.238,18.238,0,0,1-5.444-.773,12.2,12.2,0,0,1-4.3-2.3A10.307,10.307,0,0,1,209,76.152a12.886,12.886,0,0,1-1-5.263,11.907,11.907,0,0,1,1.272-5.654,10.362,10.362,0,0,1,3.794-3.967,18.917,18.917,0,0,1,6.281-2.314,44.564,44.564,0,0,1,8.717-.754H231.7V55.949a11.815,11.815,0,0,0-.357-3.069,5.092,5.092,0,0,0-1.168-2.192A4.826,4.826,0,0,0,228,49.4a11.6,11.6,0,0,0-3.358-.419,17.221,17.221,0,0,0-4.692.585,27.161,27.161,0,0,0-3.651,1.292q-1.587.713-2.651,1.3a3.883,3.883,0,0,1-1.731.584,1.236,1.236,0,0,1-.811-.292,2.091,2.091,0,0,1-.585-.836,5.656,5.656,0,0,1-.353-1.336,10.85,10.85,0,0,1-.127-1.755,7.984,7.984,0,0,1,.208-2.045,3.14,3.14,0,0,1,.793-1.355,7.785,7.785,0,0,1,2.044-1.336,23.814,23.814,0,0,1,3.422-1.358,31.353,31.353,0,0,1,4.275-1.024,31.369,31.369,0,0,1,12.264.46,12.633,12.633,0,0,1,5.11,2.63,10.2,10.2,0,0,1,2.919,4.572A21.383,21.383,0,0,1,242,55.692V80.743A1.1,1.1,0,0,1,241.581,81.663ZM231.7,64.8h-4a21.754,21.754,0,0,0-4.339.373,8.366,8.366,0,0,0-2.92,1.129,4.627,4.627,0,0,0-1.647,1.814,5.49,5.49,0,0,0-.522,2.443,4.7,4.7,0,0,0,1.481,3.673,5.915,5.915,0,0,0,4.11,1.335,7.719,7.719,0,0,0,4.068-1.124,16.934,16.934,0,0,0,3.776-3.3V64.8Z"/><path class="cls-4" d="M309,43.566a5.815,5.815,0,0,1-.128,1.111c-.086.438-.241,1.069-.469,1.893L298.27,79.776a3.422,3.422,0,0,1-.553,1.133,2.276,2.276,0,0,1-1.045.678,7.853,7.853,0,0,1-2,.329q-1.3.083-3.385.084t-3.406-.1a9.2,9.2,0,0,1-2.066-.351,2.229,2.229,0,0,1-1.086-.681,2.889,2.889,0,0,1-.512-1.09l-6.384-22.3-.089-.372-.084.372-5.878,22.3a3.09,3.09,0,0,1-.488,1.133,2.137,2.137,0,0,1-1.086.678,8.915,8.915,0,0,1-2.087.329Q266.8,82,264.713,82q-2.13,0-3.429-.1a9.171,9.171,0,0,1-2.044-.351,2.218,2.218,0,0,1-1.084-.681,2.875,2.875,0,0,1-.513-1.09L247.6,46.57a13.508,13.508,0,0,1-.491-1.87,7.382,7.382,0,0,1-.1-1.134,1.159,1.159,0,0,1,.234-.72,1.65,1.65,0,0,1,.852-.495,8.607,8.607,0,0,1,1.662-.267c.694-.052,1.568-.081,2.618-.081q1.7,0,2.769.081a6.986,6.986,0,0,1,1.66.29,1.549,1.549,0,0,1,.831.556,2.685,2.685,0,0,1,.362.841l7.538,26.951.086.5.087-.5,7.067-26.951a2.206,2.206,0,0,1,.406-.841,1.821,1.821,0,0,1,.828-.556,6.184,6.184,0,0,1,1.555-.29c.666-.052,1.527-.081,2.575-.081s1.9.034,2.555.1a7.879,7.879,0,0,1,1.554.289,1.608,1.608,0,0,1,.811.493,2.321,2.321,0,0,1,.36.717l7.579,27.157.128.453.086-.5,7.238-26.951a1.981,1.981,0,0,1,.341-.841,1.714,1.714,0,0,1,.854-.557,6.912,6.912,0,0,1,1.614-.289c.681-.052,1.547-.081,2.6-.081s1.909.027,2.577.081a7.585,7.585,0,0,1,1.576.267,1.493,1.493,0,0,1,.787.5,1.275,1.275,0,0,1,.212.723"/><path class="cls-4" d="M326,76.4q0,3.91-1.422,5.257T319.479,83q-3.678,0-5.077-1.323T313,76.65q0-3.953,1.424-5.3T319.567,70q3.633,0,5.033,1.328T326,76.4"/><path class="cls-5" d="M349,30.432q0,3.179-1.284,4.387t-4.757,1.215q-3.518,0-4.739-1.171T337,30.64q0-3.175,1.26-4.406T343.039,25q3.476,0,4.719,1.19T349,30.432Zm-.785,49.9a1.155,1.155,0,0,1-.248.732,1.832,1.832,0,0,1-.849.52,7.427,7.427,0,0,1-1.592.316,31.267,31.267,0,0,1-5.047,0,7.41,7.41,0,0,1-1.594-.316,1.814,1.814,0,0,1-.847-.52,1.145,1.145,0,0,1-.25-.732V43.136a1.157,1.157,0,0,1,.25-.732,1.985,1.985,0,0,1,.847-.543,7.251,7.251,0,0,1,1.594-.356,25.948,25.948,0,0,1,5.047,0,7.27,7.27,0,0,1,1.592.356,1.988,1.988,0,0,1,.849.543,1.149,1.149,0,0,1,.248.732Z"/><path class="cls-5" d="M398,61.626a28.412,28.412,0,0,1-1.255,8.683,18.271,18.271,0,0,1-3.807,6.759,16.924,16.924,0,0,1-6.4,4.388,24.1,24.1,0,0,1-9,1.544,24.686,24.686,0,0,1-8.661-1.378,15.622,15.622,0,0,1-6.108-4.007,16.457,16.457,0,0,1-3.6-6.472A29.985,29.985,0,0,1,358,62.374a28.207,28.207,0,0,1,1.276-8.7,18.325,18.325,0,0,1,3.828-6.764,17.086,17.086,0,0,1,6.38-4.36A23.878,23.878,0,0,1,378.458,41a25.151,25.151,0,0,1,8.7,1.358,15.215,15.215,0,0,1,6.089,3.986,16.648,16.648,0,0,1,3.579,6.472A30.269,30.269,0,0,1,398,61.626m-10.837.416a27.345,27.345,0,0,0-.438-5.072,11.941,11.941,0,0,0-1.483-4.029,7.438,7.438,0,0,0-2.785-2.67,8.966,8.966,0,0,0-4.372-.962,9.256,9.256,0,0,0-4.1.857,7.368,7.368,0,0,0-2.889,2.5,11.972,11.972,0,0,0-1.692,3.966,22.368,22.368,0,0,0-.566,5.282,26.062,26.062,0,0,0,.459,5.071,12.475,12.475,0,0,0,1.486,4.027,7.068,7.068,0,0,0,2.782,2.655,9.17,9.17,0,0,0,4.351.939,9.372,9.372,0,0,0,4.142-.857,7.425,7.425,0,0,0,2.886-2.482,11.45,11.45,0,0,0,1.673-3.946,23.153,23.153,0,0,0,.545-5.283"/></svg>