<svg id="Ebene_1" data-name="Ebene 1" xmlns="http://www.w3.org/2000/svg" viewBox="0 0 398 100"><defs><style>.cls-3{fill:#fff}</style></defs><rect width="100" height="100" rx="4" ry="4" fill="#f08705"/><path d="M53.076 25.6L63.86 14.217 100 50.337V96a4 4 0 01-4 4H33.27L14.039 80.688z" fill-rule="evenodd" fill="#df6c0c"/><path class="cls-3" transform="rotate(-30 62 47)" d="M59 32h6v30h-6z"/><path class="cls-3" transform="rotate(-60 38 47)" d="M23 44h30v6H23z"/><rect class="cls-3" x="35" y="13" width="30" height="25" rx="4" ry="4"/><rect class="cls-3" x="57" y="57" width="30" height="25" rx="4" ry="4"/><rect class="cls-3" x="13" y="57" width="30" height="25" rx="4" ry="4"/><path d="M167 80.578a1.427 1.427 0 01-.206.787 1.517 1.517 0 01-.7.528 4.623 4.623 0 01-1.34.3q-.846.087-2.083.087a21.264 21.264 0 01-2.146-.087 4.8 4.8 0 01-1.342-.3 1.654 1.654 0 01-.742-.528 1.317 1.317 0 01-.227-.787v-4.207a23.85 23.85 0 01-5.96 4.889 13.922 13.922 0 01-6.909 1.74 14.079 14.079 0 01-7.116-1.676 13.758 13.758 0 01-4.743-4.529 19.848 19.848 0 01-2.66-6.648 37.583 37.583 0 01-.826-8.011 36.2 36.2 0 011.05-9.092 20.856 20.856 0 013.075-6.884 13.753 13.753 0 015.03-4.378 15.106 15.106 0 016.93-1.53 12.041 12.041 0 015.61 1.3 19.939 19.939 0 014.992 3.8V24.827a1.342 1.342 0 01.227-.765 1.714 1.714 0 01.826-.574 6.933 6.933 0 011.587-.362 25.183 25.183 0 015.032 0 6.572 6.572 0 011.567.362 1.867 1.867 0 01.825.574 1.269 1.269 0 01.247.765v55.751zm-10.31-25.325a23.117 23.117 0 00-4.27-4.419 7.023 7.023 0 00-4.268-1.53 5.867 5.867 0 00-3.487 1.039 7.57 7.57 0 00-2.351 2.783 15.137 15.137 0 00-1.32 3.89 22.077 22.077 0 00-.432 4.4 28.464 28.464 0 00.37 4.631 14.676 14.676 0 001.218 4.014 7.54 7.54 0 002.247 2.826 5.7 5.7 0 003.548 1.064 6.819 6.819 0 002.083-.32 7.7 7.7 0 002.062-1.04 14.04 14.04 0 002.166-1.891q1.112-1.17 2.432-2.867v-12.58zM204 46.8c0 1-.032 1.812-.091 2.446a7.317 7.317 0 01-.258 1.493 1.442 1.442 0 01-.459.748 1.191 1.191 0 01-.719.207 2.489 2.489 0 01-.786-.144c-.293-.1-.619-.2-.981-.313s-.764-.213-1.2-.309a6.643 6.643 0 00-1.441-.147 5.036 5.036 0 00-1.833.355 7.728 7.728 0 00-1.9 1.1 13.822 13.822 0 00-2.052 1.989 31.949 31.949 0 00-2.291 3.069v23.05a1.1 1.1 0 01-.26.725 1.934 1.934 0 01-.9.516 8.3 8.3 0 01-1.679.314c-.7.069-1.586.1-2.66.1s-1.963-.032-2.661-.1a8.263 8.263 0 01-1.682-.314 1.927 1.927 0 01-.892-.516 1.1 1.1 0 01-.263-.725V43.366a1.21 1.21 0 01.221-.726 1.612 1.612 0 01.784-.519 6.639 6.639 0 011.461-.309 20.2 20.2 0 012.248-.1 21.269 21.269 0 012.311.1 5.593 5.593 0 011.42.309 1.629 1.629 0 01.718.519 1.235 1.235 0 01.217.726v4.6a30.688 30.688 0 012.881-3.42 16.212 16.212 0 012.575-2.134 8.258 8.258 0 012.443-1.1A9.9 9.9 0 01198.72 41c.379 0 .787.022 1.224.062a13.108 13.108 0 011.352.21 9.094 9.094 0 011.22.332 2.4 2.4 0 01.764.391 1.291 1.291 0 01.349.456 3.5 3.5 0 01.2.686 9.485 9.485 0 01.132 1.3c.025.583.042 1.368.042 2.362m37.578 34.864a2.877 2.877 0 01-1.314.479 17.671 17.671 0 01-2.65.148 17.912 17.912 0 01-2.731-.148 2.365 2.365 0 01-1.21-.479 1.209 1.209 0 01-.355-.92v-2.961a16.934 16.934 0 01-5.236 3.84A15.217 15.217 0 01221.557 83a18.238 18.238 0 01-5.444-.773 12.2 12.2 0 01-4.3-2.3A10.307 10.307 0 01209 76.152a12.886 12.886 0 01-1-5.263 11.907 11.907 0 011.272-5.654 10.362 10.362 0 013.794-3.967 18.917 18.917 0 016.281-2.314 44.564 44.564 0 018.717-.754h3.636v-2.251a11.815 11.815 0 00-.357-3.069 5.092 5.092 0 00-1.168-2.192A4.826 4.826 0 00228 49.4a11.6 11.6 0 00-3.358-.419 17.221 17.221 0 00-4.692.585 27.161 27.161 0 00-3.651 1.292q-1.587.713-2.651 1.3a3.883 3.883 0 01-1.731.584 1.236 1.236 0 01-.811-.292 2.091 2.091 0 01-.585-.836 5.656 5.656 0 01-.353-1.336 10.85 10.85 0 01-.127-1.755 7.984 7.984 0 01.208-2.045 3.14 3.14 0 01.793-1.355 7.785 7.785 0 012.044-1.336 23.814 23.814 0 013.422-1.358 31.353 31.353 0 014.275-1.024 31.369 31.369 0 0112.264.46 12.633 12.633 0 015.11 2.63 10.2 10.2 0 012.919 4.572 21.383 21.383 0 01.924 6.625v25.051a1.1 1.1 0 01-.419.92zM231.7 64.8h-4a21.754 21.754 0 00-4.339.373 8.366 8.366 0 00-2.92 1.129 4.627 4.627 0 00-1.647 1.814 5.49 5.49 0 00-.522 2.443 4.7 4.7 0 001.481 3.673 5.915 5.915 0 004.11 1.335 7.719 7.719 0 004.068-1.124 16.934 16.934 0 003.776-3.3V64.8zM309 43.566a5.815 5.815 0 01-.128 1.111 27.482 27.482 0 01-.469 1.893L298.27 79.776a3.422 3.422 0 01-.553 1.133 2.276 2.276 0 01-1.045.678 7.853 7.853 0 01-2 .329q-1.3.083-3.385.084t-3.406-.1a9.2 9.2 0 01-2.066-.351 2.229 2.229 0 01-1.086-.681 2.889 2.889 0 01-.512-1.09l-6.384-22.3-.089-.372-.084.372-5.878 22.3a3.09 3.09 0 01-.488 1.133 2.137 2.137 0 01-1.086.678 8.915 8.915 0 01-2.087.329Q266.8 82 264.713 82q-2.13 0-3.429-.1a9.171 9.171 0 01-2.044-.351 2.218 2.218 0 01-1.084-.681 2.875 2.875 0 01-.513-1.09L247.6 46.57a13.508 13.508 0 01-.491-1.87 7.382 7.382 0 01-.1-1.134 1.159 1.159 0 01.234-.72 1.65 1.65 0 01.852-.495 8.607 8.607 0 011.662-.267 35.946 35.946 0 012.618-.081q1.7 0 2.769.081a6.986 6.986 0 011.66.29 1.549 1.549 0 01.831.556 2.685 2.685 0 01.362.841l7.538 26.951.086.5.087-.5 7.067-26.951a2.206 2.206 0 01.406-.841 1.821 1.821 0 01.828-.556 6.184 6.184 0 011.555-.29c.666-.052 1.527-.081 2.575-.081s1.9.034 2.555.1a7.879 7.879 0 011.554.289 1.608 1.608 0 01.811.493 2.321 2.321 0 01.36.717l7.579 27.157.128.453.086-.5 7.238-26.951a1.981 1.981 0 01.341-.841 1.714 1.714 0 01.854-.557 6.912 6.912 0 011.614-.289c.681-.052 1.547-.081 2.6-.081s1.909.027 2.577.081a7.585 7.585 0 011.576.267 1.493 1.493 0 01.787.5 1.275 1.275 0 01.212.723M326 76.4q0 3.91-1.422 5.257T319.479 83q-3.678 0-5.077-1.323T313 76.65q0-3.953 1.424-5.3t5.143-1.35q3.633 0 5.033 1.328T326 76.4" fill="#333" fill-rule="evenodd"/><path d="M349 30.432q0 3.179-1.284 4.387t-4.757 1.215q-3.518 0-4.739-1.171T337 30.64q0-3.175 1.26-4.406T343.039 25q3.476 0 4.719 1.19T349 30.432zm-.785 49.9a1.155 1.155 0 01-.248.732 1.832 1.832 0 01-.849.52 7.427 7.427 0 01-1.592.316 31.267 31.267 0 01-5.047 0 7.41 7.41 0 01-1.594-.316 1.814 1.814 0 01-.847-.52 1.145 1.145 0 01-.25-.732V43.136a1.157 1.157 0 01.25-.732 1.985 1.985 0 01.847-.543 7.251 7.251 0 011.594-.356 25.948 25.948 0 015.047 0 7.27 7.27 0 011.592.356 1.988 1.988 0 01.849.543 1.149 1.149 0 01.248.732zM398 61.626a28.412 28.412 0 01-1.255 8.683 18.271 18.271 0 01-3.807 6.759 16.924 16.924 0 01-6.4 4.388 24.1 24.1 0 01-9 1.544 24.686 24.686 0 01-8.661-1.378 15.622 15.622 0 01-6.108-4.007 16.457 16.457 0 01-3.6-6.472A29.985 29.985 0 01358 62.374a28.207 28.207 0 011.276-8.7 18.325 18.325 0 013.828-6.764 17.086 17.086 0 016.38-4.36 23.878 23.878 0 018.974-1.55 25.151 25.151 0 018.7 1.358 15.215 15.215 0 016.089 3.986 16.648 16.648 0 013.579 6.472 30.269 30.269 0 011.174 8.81m-10.837.416a27.345 27.345 0 00-.438-5.072 11.941 11.941 0 00-1.483-4.029 7.438 7.438 0 00-2.785-2.67 8.966 8.966 0 00-4.372-.962 9.256 9.256 0 00-4.1.857 7.368 7.368 0 00-2.889 2.5 11.972 11.972 0 00-1.692 3.966 22.368 22.368 0 00-.566 5.282 26.062 26.062 0 00.459 5.071 12.475 12.475 0 001.486 4.027 7.068 7.068 0 002.782 2.655 9.17 9.17 0 004.351.939 9.372 9.372 0 004.142-.857 7.425 7.425 0 002.886-2.482 11.45 11.45 0 001.673-3.946 23.153 23.153 0 00.545-5.283" fill-rule="evenodd" fill="#f08705"/></svg>